<mxfile host="app.diagrams.net" modified="2021-02-03T09:55:04.470Z" agent="5.0 (Windows NT 10.0; Win64; x64) AppleWebKit/537.36 (KHTML, like Gecko) Chrome/86.0.4240.75 Safari/537.36" etag="QS_mVK5v_VlcY1JK9oJK" version="14.2.9" type="github">
  <diagram id="VvqAFld6kcSRDZWVkb-_" name="Page-1">
    <mxGraphModel dx="1422" dy="762" grid="1" gridSize="10" guides="1" tooltips="1" connect="1" arrows="1" fold="1" page="1" pageScale="1" pageWidth="827" pageHeight="1169" math="0" shadow="0">
      <root>
        <mxCell id="0" />
        <mxCell id="1" parent="0" />
        <mxCell id="OwSdajE1iPS6r4egMdJ5-2" value="子钱包" style="rounded=0;whiteSpace=wrap;html=1;" parent="1" vertex="1">
          <mxGeometry x="614" y="220" width="120" height="60" as="geometry" />
        </mxCell>
        <mxCell id="OwSdajE1iPS6r4egMdJ5-6" value="充值100W" style="edgeStyle=orthogonalEdgeStyle;rounded=0;orthogonalLoop=1;jettySize=auto;html=1;exitX=0.5;exitY=0.5;exitDx=0;exitDy=0;exitPerimeter=0;entryX=0;entryY=0.5;entryDx=0;entryDy=0;" parent="1" source="OwSdajE1iPS6r4egMdJ5-3" target="OwSdajE1iPS6r4egMdJ5-4" edge="1">
          <mxGeometry relative="1" as="geometry" />
        </mxCell>
        <mxCell id="OwSdajE1iPS6r4egMdJ5-3" value="客户" style="shape=umlActor;verticalLabelPosition=bottom;verticalAlign=top;html=1;outlineConnect=0;" parent="1" vertex="1">
          <mxGeometry x="14" y="340" width="30" height="60" as="geometry" />
        </mxCell>
        <mxCell id="OwSdajE1iPS6r4egMdJ5-13" style="edgeStyle=orthogonalEdgeStyle;rounded=0;orthogonalLoop=1;jettySize=auto;html=1;exitX=0.5;exitY=0;exitDx=0;exitDy=0;entryX=0;entryY=0.5;entryDx=0;entryDy=0;" parent="1" source="OwSdajE1iPS6r4egMdJ5-4" target="OwSdajE1iPS6r4egMdJ5-5" edge="1">
          <mxGeometry relative="1" as="geometry" />
        </mxCell>
        <mxCell id="OwSdajE1iPS6r4egMdJ5-14" value="回调: &lt;br&gt;subBankAccount、amount" style="edgeLabel;html=1;align=center;verticalAlign=middle;resizable=0;points=[];labelBackgroundColor=#ffffff;" parent="OwSdajE1iPS6r4egMdJ5-13" vertex="1" connectable="0">
          <mxGeometry x="-0.3263" y="2" relative="1" as="geometry">
            <mxPoint as="offset" />
          </mxGeometry>
        </mxCell>
        <mxCell id="OwSdajE1iPS6r4egMdJ5-4" value="银行" style="rounded=0;whiteSpace=wrap;html=1;" parent="1" vertex="1">
          <mxGeometry x="174" y="340" width="120" height="60" as="geometry" />
        </mxCell>
        <mxCell id="OwSdajE1iPS6r4egMdJ5-15" style="edgeStyle=orthogonalEdgeStyle;rounded=0;orthogonalLoop=1;jettySize=auto;html=1;exitX=1;exitY=0.5;exitDx=0;exitDy=0;entryX=0;entryY=0.5;entryDx=0;entryDy=0;" parent="1" source="OwSdajE1iPS6r4egMdJ5-5" target="OwSdajE1iPS6r4egMdJ5-2" edge="1">
          <mxGeometry relative="1" as="geometry" />
        </mxCell>
        <mxCell id="OwSdajE1iPS6r4egMdJ5-18" value="充值" style="edgeLabel;html=1;align=center;verticalAlign=middle;resizable=0;points=[];fontColor=none;" parent="OwSdajE1iPS6r4egMdJ5-15" vertex="1" connectable="0">
          <mxGeometry x="-0.1875" relative="1" as="geometry">
            <mxPoint as="offset" />
          </mxGeometry>
        </mxCell>
        <mxCell id="OwSdajE1iPS6r4egMdJ5-5" value="佣金宝" style="rounded=0;whiteSpace=wrap;html=1;" parent="1" vertex="1">
          <mxGeometry x="334" y="220" width="120" height="60" as="geometry" />
        </mxCell>
        <mxCell id="OwSdajE1iPS6r4egMdJ5-9" value="打钱到子账户" style="shape=note;whiteSpace=wrap;html=1;backgroundOutline=1;darkOpacity=0.05;align=left;fillColor=#fff2cc;strokeColor=#d6b656;size=13;" parent="1" vertex="1">
          <mxGeometry x="24" y="230" width="100" height="40" as="geometry" />
        </mxCell>
        <mxCell id="OwSdajE1iPS6r4egMdJ5-12" value="" style="endArrow=none;dashed=1;html=1;entryX=0.5;entryY=1;entryDx=0;entryDy=0;entryPerimeter=0;" parent="1" target="OwSdajE1iPS6r4egMdJ5-9" edge="1">
          <mxGeometry width="50" height="50" relative="1" as="geometry">
            <mxPoint x="144" y="370" as="sourcePoint" />
            <mxPoint x="154" y="330" as="targetPoint" />
          </mxGeometry>
        </mxCell>
        <mxCell id="OwSdajE1iPS6r4egMdJ5-17" value="根据子账户找到项目、支付渠道，&lt;br&gt;从而找到钱包，增加对应钱包的余额" style="shape=note;whiteSpace=wrap;html=1;backgroundOutline=1;darkOpacity=0.05;align=left;fillColor=#fff2cc;strokeColor=#d6b656;size=13;" parent="1" vertex="1">
          <mxGeometry x="554" y="60" width="200" height="70" as="geometry" />
        </mxCell>
        <mxCell id="OwSdajE1iPS6r4egMdJ5-19" value="" style="endArrow=none;dashed=1;html=1;fontColor=none;entryX=0.5;entryY=1;entryDx=0;entryDy=0;entryPerimeter=0;" parent="1" target="OwSdajE1iPS6r4egMdJ5-17" edge="1">
          <mxGeometry width="50" height="50" relative="1" as="geometry">
            <mxPoint x="544" y="250" as="sourcePoint" />
            <mxPoint x="614" y="160" as="targetPoint" />
          </mxGeometry>
        </mxCell>
        <mxCell id="OwSdajE1iPS6r4egMdJ5-20" value="余额增加100W" style="curved=1;endArrow=classic;html=1;fontColor=none;exitX=1;exitY=0.75;exitDx=0;exitDy=0;entryX=1;entryY=0.25;entryDx=0;entryDy=0;" parent="1" source="OwSdajE1iPS6r4egMdJ5-2" target="OwSdajE1iPS6r4egMdJ5-2" edge="1">
          <mxGeometry x="0.4653" y="-18" width="50" height="50" relative="1" as="geometry">
            <mxPoint x="744" y="270" as="sourcePoint" />
            <mxPoint x="744" y="230" as="targetPoint" />
            <Array as="points">
              <mxPoint x="814" y="280" />
              <mxPoint x="764" y="230" />
            </Array>
            <mxPoint as="offset" />
          </mxGeometry>
        </mxCell>
        <mxCell id="OwSdajE1iPS6r4egMdJ5-22" value="项目" style="rounded=0;whiteSpace=wrap;html=1;" parent="1" vertex="1">
          <mxGeometry x="160" y="600" width="120" height="60" as="geometry" />
        </mxCell>
        <mxCell id="OwSdajE1iPS6r4egMdJ5-29" value="发放100W" style="edgeStyle=orthogonalEdgeStyle;rounded=0;orthogonalLoop=1;jettySize=auto;html=1;fontColor=none;exitX=1;exitY=0.5;exitDx=0;exitDy=0;" parent="1" source="OwSdajE1iPS6r4egMdJ5-22" target="OwSdajE1iPS6r4egMdJ5-28" edge="1">
          <mxGeometry relative="1" as="geometry">
            <mxPoint x="480" y="630" as="sourcePoint" />
          </mxGeometry>
        </mxCell>
        <mxCell id="OwSdajE1iPS6r4egMdJ5-28" value="子钱包" style="whiteSpace=wrap;html=1;rounded=0;fillColor=#d5e8d4;strokeColor=#82b366;" parent="1" vertex="1">
          <mxGeometry x="454" y="600" width="120" height="60" as="geometry" />
        </mxCell>
        <mxCell id="OwSdajE1iPS6r4egMdJ5-31" value="发放" style="edgeStyle=orthogonalEdgeStyle;rounded=0;orthogonalLoop=1;jettySize=auto;html=1;exitX=0.5;exitY=0.5;exitDx=0;exitDy=0;exitPerimeter=0;entryX=0;entryY=0.5;entryDx=0;entryDy=0;fontColor=none;" parent="1" source="OwSdajE1iPS6r4egMdJ5-30" target="OwSdajE1iPS6r4egMdJ5-22" edge="1">
          <mxGeometry relative="1" as="geometry" />
        </mxCell>
        <mxCell id="OwSdajE1iPS6r4egMdJ5-30" value="客户" style="shape=umlActor;verticalLabelPosition=bottom;verticalAlign=top;html=1;outlineConnect=0;labelBackgroundColor=#ffffff;fontColor=none;align=left;" parent="1" vertex="1">
          <mxGeometry x="40" y="600" width="30" height="60" as="geometry" />
        </mxCell>
        <mxCell id="OwSdajE1iPS6r4egMdJ5-45" value="" style="curved=1;endArrow=classic;html=1;fontColor=none;entryX=0.383;entryY=-0.067;entryDx=0;entryDy=0;entryPerimeter=0;" parent="1" target="OwSdajE1iPS6r4egMdJ5-28" edge="1">
          <mxGeometry width="50" height="50" relative="1" as="geometry">
            <mxPoint x="560" y="600" as="sourcePoint" />
            <mxPoint x="610" y="550" as="targetPoint" />
            <Array as="points">
              <mxPoint x="590" y="560" />
              <mxPoint x="520" y="540" />
            </Array>
          </mxGeometry>
        </mxCell>
        <mxCell id="OwSdajE1iPS6r4egMdJ5-46" value="余额减少100W" style="edgeLabel;html=1;align=center;verticalAlign=middle;resizable=0;points=[];fontColor=none;" parent="OwSdajE1iPS6r4egMdJ5-45" vertex="1" connectable="0">
          <mxGeometry x="0.0913" y="2" relative="1" as="geometry">
            <mxPoint x="47.66" y="-8.46" as="offset" />
          </mxGeometry>
        </mxCell>
        <mxCell id="OwSdajE1iPS6r4egMdJ5-48" value="项目" style="rounded=0;whiteSpace=wrap;html=1;" parent="1" vertex="1">
          <mxGeometry x="160" y="800" width="120" height="60" as="geometry" />
        </mxCell>
        <mxCell id="OwSdajE1iPS6r4egMdJ5-49" value="提现100W" style="edgeStyle=orthogonalEdgeStyle;rounded=0;orthogonalLoop=1;jettySize=auto;html=1;fontColor=none;exitX=1;exitY=0.5;exitDx=0;exitDy=0;" parent="1" source="OwSdajE1iPS6r4egMdJ5-48" target="OwSdajE1iPS6r4egMdJ5-50" edge="1">
          <mxGeometry relative="1" as="geometry">
            <mxPoint x="480" y="830" as="sourcePoint" />
          </mxGeometry>
        </mxCell>
        <mxCell id="OwSdajE1iPS6r4egMdJ5-50" value="子钱包" style="whiteSpace=wrap;html=1;rounded=0;fillColor=#d5e8d4;strokeColor=#82b366;" parent="1" vertex="1">
          <mxGeometry x="454" y="800" width="120" height="60" as="geometry" />
        </mxCell>
        <mxCell id="OwSdajE1iPS6r4egMdJ5-51" value="提现100W" style="edgeStyle=orthogonalEdgeStyle;rounded=0;orthogonalLoop=1;jettySize=auto;html=1;exitX=0.5;exitY=0.5;exitDx=0;exitDy=0;exitPerimeter=0;entryX=0;entryY=0.5;entryDx=0;entryDy=0;fontColor=none;" parent="1" source="OwSdajE1iPS6r4egMdJ5-52" target="OwSdajE1iPS6r4egMdJ5-48" edge="1">
          <mxGeometry relative="1" as="geometry" />
        </mxCell>
        <mxCell id="OwSdajE1iPS6r4egMdJ5-52" value="客户" style="shape=umlActor;verticalLabelPosition=bottom;verticalAlign=top;html=1;outlineConnect=0;labelBackgroundColor=#ffffff;fontColor=none;align=left;" parent="1" vertex="1">
          <mxGeometry x="40" y="800" width="30" height="60" as="geometry" />
        </mxCell>
        <mxCell id="OwSdajE1iPS6r4egMdJ5-53" value="" style="curved=1;endArrow=classic;html=1;fontColor=none;entryX=0.383;entryY=-0.067;entryDx=0;entryDy=0;entryPerimeter=0;" parent="1" target="OwSdajE1iPS6r4egMdJ5-50" edge="1">
          <mxGeometry width="50" height="50" relative="1" as="geometry">
            <mxPoint x="560" y="800" as="sourcePoint" />
            <mxPoint x="610" y="750" as="targetPoint" />
            <Array as="points">
              <mxPoint x="590" y="760" />
              <mxPoint x="520" y="740" />
            </Array>
          </mxGeometry>
        </mxCell>
        <mxCell id="OwSdajE1iPS6r4egMdJ5-54" value="余额减少100W" style="edgeLabel;html=1;align=center;verticalAlign=middle;resizable=0;points=[];fontColor=none;" parent="OwSdajE1iPS6r4egMdJ5-53" vertex="1" connectable="0">
          <mxGeometry x="0.0913" y="2" relative="1" as="geometry">
            <mxPoint x="47.66" y="-8.46" as="offset" />
          </mxGeometry>
        </mxCell>
        <mxCell id="L0Rb23iCuePktw84FL31-2" value="充值100W" style="edgeStyle=orthogonalEdgeStyle;rounded=0;orthogonalLoop=1;jettySize=auto;html=1;exitX=0.5;exitY=0.5;exitDx=0;exitDy=0;exitPerimeter=0;entryX=0;entryY=0.5;entryDx=0;entryDy=0;" parent="1" source="L0Rb23iCuePktw84FL31-3" target="L0Rb23iCuePktw84FL31-6" edge="1">
          <mxGeometry relative="1" as="geometry" />
        </mxCell>
        <mxCell id="L0Rb23iCuePktw84FL31-3" value="客户" style="shape=umlActor;verticalLabelPosition=bottom;verticalAlign=top;html=1;outlineConnect=0;" parent="1" vertex="1">
          <mxGeometry x="1160" y="380" width="30" height="60" as="geometry" />
        </mxCell>
        <mxCell id="L0Rb23iCuePktw84FL31-4" style="edgeStyle=orthogonalEdgeStyle;rounded=0;orthogonalLoop=1;jettySize=auto;html=1;exitX=0.5;exitY=0;exitDx=0;exitDy=0;entryX=0;entryY=0.5;entryDx=0;entryDy=0;" parent="1" source="L0Rb23iCuePktw84FL31-6" target="L0Rb23iCuePktw84FL31-9" edge="1">
          <mxGeometry relative="1" as="geometry" />
        </mxCell>
        <mxCell id="L0Rb23iCuePktw84FL31-5" value="回调: &lt;br&gt;subBankAccount、amount" style="edgeLabel;html=1;align=center;verticalAlign=middle;resizable=0;points=[];labelBackgroundColor=#ffffff;" parent="L0Rb23iCuePktw84FL31-4" vertex="1" connectable="0">
          <mxGeometry x="-0.3263" y="2" relative="1" as="geometry">
            <mxPoint as="offset" />
          </mxGeometry>
        </mxCell>
        <mxCell id="L0Rb23iCuePktw84FL31-6" value="银行" style="rounded=0;whiteSpace=wrap;html=1;" parent="1" vertex="1">
          <mxGeometry x="1320" y="380" width="120" height="60" as="geometry" />
        </mxCell>
        <mxCell id="L0Rb23iCuePktw84FL31-24" style="edgeStyle=orthogonalEdgeStyle;rounded=0;orthogonalLoop=1;jettySize=auto;html=1;exitX=1;exitY=0.5;exitDx=0;exitDy=0;entryX=0;entryY=0.5;entryDx=0;entryDy=0;" parent="1" source="L0Rb23iCuePktw84FL31-9" target="L0Rb23iCuePktw84FL31-1" edge="1">
          <mxGeometry relative="1" as="geometry" />
        </mxCell>
        <mxCell id="L0Rb23iCuePktw84FL31-9" value="佣金宝" style="rounded=0;whiteSpace=wrap;html=1;" parent="1" vertex="1">
          <mxGeometry x="1480" y="260" width="120" height="60" as="geometry" />
        </mxCell>
        <mxCell id="L0Rb23iCuePktw84FL31-10" value="打钱到子账户" style="shape=note;whiteSpace=wrap;html=1;backgroundOutline=1;darkOpacity=0.05;align=left;fillColor=#fff2cc;strokeColor=#d6b656;size=13;" parent="1" vertex="1">
          <mxGeometry x="1170" y="270" width="100" height="40" as="geometry" />
        </mxCell>
        <mxCell id="L0Rb23iCuePktw84FL31-11" value="" style="endArrow=none;dashed=1;html=1;entryX=0.5;entryY=1;entryDx=0;entryDy=0;entryPerimeter=0;" parent="1" target="L0Rb23iCuePktw84FL31-10" edge="1">
          <mxGeometry width="50" height="50" relative="1" as="geometry">
            <mxPoint x="1290" y="410" as="sourcePoint" />
            <mxPoint x="1300" y="370" as="targetPoint" />
          </mxGeometry>
        </mxCell>
        <mxCell id="L0Rb23iCuePktw84FL31-12" value="根据子账户找到项目、支付渠道，&lt;br&gt;从而找到钱包，增加对应钱包的余额" style="shape=note;whiteSpace=wrap;html=1;backgroundOutline=1;darkOpacity=0.05;align=left;fillColor=#fff2cc;strokeColor=#d6b656;size=13;" parent="1" vertex="1">
          <mxGeometry x="1747.5" y="120" width="200" height="70" as="geometry" />
        </mxCell>
        <mxCell id="L0Rb23iCuePktw84FL31-13" value="" style="endArrow=none;dashed=1;html=1;fontColor=none;entryX=0.5;entryY=1;entryDx=0;entryDy=0;entryPerimeter=0;" parent="1" target="L0Rb23iCuePktw84FL31-12" edge="1">
          <mxGeometry width="50" height="50" relative="1" as="geometry">
            <mxPoint x="1720" y="270" as="sourcePoint" />
            <mxPoint x="1807.5" y="140" as="targetPoint" />
          </mxGeometry>
        </mxCell>
        <mxCell id="L0Rb23iCuePktw84FL31-17" value="" style="group" parent="1" vertex="1" connectable="0">
          <mxGeometry x="1810" y="260" width="200" height="60" as="geometry" />
        </mxCell>
        <mxCell id="L0Rb23iCuePktw84FL31-1" value="项目子钱包" style="rounded=0;whiteSpace=wrap;html=1;" parent="L0Rb23iCuePktw84FL31-17" vertex="1">
          <mxGeometry width="120" height="60" as="geometry" />
        </mxCell>
        <mxCell id="L0Rb23iCuePktw84FL31-14" value="余额增加100W" style="curved=1;endArrow=classic;html=1;fontColor=none;exitX=1;exitY=0.75;exitDx=0;exitDy=0;entryX=1;entryY=0.25;entryDx=0;entryDy=0;" parent="L0Rb23iCuePktw84FL31-17" source="L0Rb23iCuePktw84FL31-1" target="L0Rb23iCuePktw84FL31-1" edge="1">
          <mxGeometry x="0.4653" y="-18" width="50" height="50" relative="1" as="geometry">
            <mxPoint x="130" y="50" as="sourcePoint" />
            <mxPoint x="130" y="10" as="targetPoint" />
            <Array as="points">
              <mxPoint x="200" y="60" />
              <mxPoint x="150" y="10" />
            </Array>
            <mxPoint as="offset" />
          </mxGeometry>
        </mxCell>
        <mxCell id="L0Rb23iCuePktw84FL31-23" value="充值" style="text;html=1;align=center;verticalAlign=middle;resizable=0;points=[];autosize=1;" parent="1" vertex="1">
          <mxGeometry x="1630" y="270" width="40" height="20" as="geometry" />
        </mxCell>
        <mxCell id="L0Rb23iCuePktw84FL31-25" value="项目" style="rounded=0;whiteSpace=wrap;html=1;" parent="1" vertex="1">
          <mxGeometry x="1240" y="1150" width="120" height="60" as="geometry" />
        </mxCell>
        <mxCell id="L0Rb23iCuePktw84FL31-26" value="发放100W" style="edgeStyle=orthogonalEdgeStyle;rounded=0;orthogonalLoop=1;jettySize=auto;html=1;fontColor=none;exitX=1;exitY=0.5;exitDx=0;exitDy=0;" parent="1" source="L0Rb23iCuePktw84FL31-25" target="L0Rb23iCuePktw84FL31-27" edge="1">
          <mxGeometry relative="1" as="geometry">
            <mxPoint x="1560" y="1180" as="sourcePoint" />
          </mxGeometry>
        </mxCell>
        <mxCell id="L0Rb23iCuePktw84FL31-28" value="发放" style="edgeStyle=orthogonalEdgeStyle;rounded=0;orthogonalLoop=1;jettySize=auto;html=1;exitX=0.5;exitY=0.5;exitDx=0;exitDy=0;exitPerimeter=0;entryX=0;entryY=0.5;entryDx=0;entryDy=0;fontColor=none;" parent="1" source="L0Rb23iCuePktw84FL31-29" target="L0Rb23iCuePktw84FL31-25" edge="1">
          <mxGeometry relative="1" as="geometry" />
        </mxCell>
        <mxCell id="L0Rb23iCuePktw84FL31-29" value="客户" style="shape=umlActor;verticalLabelPosition=bottom;verticalAlign=top;html=1;outlineConnect=0;labelBackgroundColor=#ffffff;fontColor=none;align=left;" parent="1" vertex="1">
          <mxGeometry x="1120" y="1150" width="30" height="60" as="geometry" />
        </mxCell>
        <mxCell id="L0Rb23iCuePktw84FL31-34" value="" style="group" parent="1" vertex="1" connectable="0">
          <mxGeometry x="1534" y="1090" width="136" height="120" as="geometry" />
        </mxCell>
        <mxCell id="L0Rb23iCuePktw84FL31-27" value="项目子钱包" style="whiteSpace=wrap;html=1;rounded=0;fillColor=#d5e8d4;strokeColor=#82b366;" parent="L0Rb23iCuePktw84FL31-34" vertex="1">
          <mxGeometry y="60" width="120" height="60" as="geometry" />
        </mxCell>
        <mxCell id="L0Rb23iCuePktw84FL31-30" value="" style="curved=1;endArrow=classic;html=1;fontColor=none;entryX=0.383;entryY=-0.067;entryDx=0;entryDy=0;entryPerimeter=0;" parent="L0Rb23iCuePktw84FL31-34" target="L0Rb23iCuePktw84FL31-27" edge="1">
          <mxGeometry width="50" height="50" relative="1" as="geometry">
            <mxPoint x="106" y="60" as="sourcePoint" />
            <mxPoint x="156" y="10" as="targetPoint" />
            <Array as="points">
              <mxPoint x="136" y="20" />
              <mxPoint x="66" />
            </Array>
          </mxGeometry>
        </mxCell>
        <mxCell id="L0Rb23iCuePktw84FL31-31" value="余额减少100W" style="edgeLabel;html=1;align=center;verticalAlign=middle;resizable=0;points=[];fontColor=none;" parent="L0Rb23iCuePktw84FL31-30" vertex="1" connectable="0">
          <mxGeometry x="0.0913" y="2" relative="1" as="geometry">
            <mxPoint x="47.66" y="-8.46" as="offset" />
          </mxGeometry>
        </mxCell>
        <mxCell id="L0Rb23iCuePktw84FL31-40" value="项目" style="rounded=0;whiteSpace=wrap;html=1;" parent="1" vertex="1">
          <mxGeometry x="1240" y="1385" width="120" height="60" as="geometry" />
        </mxCell>
        <mxCell id="L0Rb23iCuePktw84FL31-41" value="发放100W" style="edgeStyle=orthogonalEdgeStyle;rounded=0;orthogonalLoop=1;jettySize=auto;html=1;fontColor=none;exitX=1;exitY=0.5;exitDx=0;exitDy=0;" parent="1" source="L0Rb23iCuePktw84FL31-40" target="L0Rb23iCuePktw84FL31-45" edge="1">
          <mxGeometry relative="1" as="geometry">
            <mxPoint x="1560" y="1415" as="sourcePoint" />
          </mxGeometry>
        </mxCell>
        <mxCell id="L0Rb23iCuePktw84FL31-42" value="发放" style="edgeStyle=orthogonalEdgeStyle;rounded=0;orthogonalLoop=1;jettySize=auto;html=1;exitX=0.5;exitY=0.5;exitDx=0;exitDy=0;exitPerimeter=0;entryX=0;entryY=0.5;entryDx=0;entryDy=0;fontColor=none;" parent="1" source="L0Rb23iCuePktw84FL31-43" target="L0Rb23iCuePktw84FL31-40" edge="1">
          <mxGeometry relative="1" as="geometry" />
        </mxCell>
        <mxCell id="L0Rb23iCuePktw84FL31-43" value="客户" style="shape=umlActor;verticalLabelPosition=bottom;verticalAlign=top;html=1;outlineConnect=0;labelBackgroundColor=#ffffff;fontColor=none;align=left;" parent="1" vertex="1">
          <mxGeometry x="1120" y="1385" width="30" height="60" as="geometry" />
        </mxCell>
        <mxCell id="L0Rb23iCuePktw84FL31-44" value="" style="group" parent="1" vertex="1" connectable="0">
          <mxGeometry x="1534" y="1325" width="136" height="120" as="geometry" />
        </mxCell>
        <mxCell id="L0Rb23iCuePktw84FL31-45" value="项目子钱包" style="whiteSpace=wrap;html=1;rounded=0;fillColor=#d5e8d4;strokeColor=#82b366;" parent="L0Rb23iCuePktw84FL31-44" vertex="1">
          <mxGeometry y="60" width="120" height="60" as="geometry" />
        </mxCell>
        <mxCell id="L0Rb23iCuePktw84FL31-46" value="" style="curved=1;endArrow=classic;html=1;fontColor=none;entryX=0.383;entryY=-0.067;entryDx=0;entryDy=0;entryPerimeter=0;" parent="L0Rb23iCuePktw84FL31-44" target="L0Rb23iCuePktw84FL31-45" edge="1">
          <mxGeometry width="50" height="50" relative="1" as="geometry">
            <mxPoint x="106" y="60" as="sourcePoint" />
            <mxPoint x="156" y="10" as="targetPoint" />
            <Array as="points">
              <mxPoint x="136" y="20" />
              <mxPoint x="66" />
            </Array>
          </mxGeometry>
        </mxCell>
        <mxCell id="L0Rb23iCuePktw84FL31-47" value="余额减少100W" style="edgeLabel;html=1;align=center;verticalAlign=middle;resizable=0;points=[];fontColor=none;" parent="L0Rb23iCuePktw84FL31-46" vertex="1" connectable="0">
          <mxGeometry x="0.0913" y="2" relative="1" as="geometry">
            <mxPoint x="47.66" y="-8.46" as="offset" />
          </mxGeometry>
        </mxCell>
        <mxCell id="L0Rb23iCuePktw84FL31-52" style="edgeStyle=orthogonalEdgeStyle;rounded=0;orthogonalLoop=1;jettySize=auto;html=1;exitX=1;exitY=0.5;exitDx=0;exitDy=0;" parent="1" source="L0Rb23iCuePktw84FL31-45" target="L0Rb23iCuePktw84FL31-49" edge="1">
          <mxGeometry relative="1" as="geometry" />
        </mxCell>
        <mxCell id="L0Rb23iCuePktw84FL31-53" value="" style="group" parent="1" vertex="1" connectable="0">
          <mxGeometry x="2040" y="1325" width="136" height="120" as="geometry" />
        </mxCell>
        <mxCell id="L0Rb23iCuePktw84FL31-54" value="园区主体钱包" style="whiteSpace=wrap;html=1;rounded=0;fillColor=#d5e8d4;strokeColor=#82b366;" parent="L0Rb23iCuePktw84FL31-53" vertex="1">
          <mxGeometry y="60" width="120" height="60" as="geometry" />
        </mxCell>
        <mxCell id="L0Rb23iCuePktw84FL31-55" value="" style="curved=1;endArrow=classic;html=1;fontColor=none;entryX=0.383;entryY=-0.067;entryDx=0;entryDy=0;entryPerimeter=0;" parent="L0Rb23iCuePktw84FL31-53" target="L0Rb23iCuePktw84FL31-54" edge="1">
          <mxGeometry width="50" height="50" relative="1" as="geometry">
            <mxPoint x="106" y="60" as="sourcePoint" />
            <mxPoint x="156" y="10" as="targetPoint" />
            <Array as="points">
              <mxPoint x="136" y="20" />
              <mxPoint x="66" />
            </Array>
          </mxGeometry>
        </mxCell>
        <mxCell id="L0Rb23iCuePktw84FL31-56" value="余额减少100W" style="edgeLabel;html=1;align=center;verticalAlign=middle;resizable=0;points=[];fontColor=none;" parent="L0Rb23iCuePktw84FL31-55" vertex="1" connectable="0">
          <mxGeometry x="0.0913" y="2" relative="1" as="geometry">
            <mxPoint x="47.66" y="-8.46" as="offset" />
          </mxGeometry>
        </mxCell>
        <mxCell id="L0Rb23iCuePktw84FL31-57" style="edgeStyle=orthogonalEdgeStyle;rounded=0;orthogonalLoop=1;jettySize=auto;html=1;exitX=1;exitY=0.5;exitDx=0;exitDy=0;entryX=0;entryY=0.5;entryDx=0;entryDy=0;" parent="1" source="L0Rb23iCuePktw84FL31-49" target="L0Rb23iCuePktw84FL31-54" edge="1">
          <mxGeometry relative="1" as="geometry" />
        </mxCell>
        <mxCell id="L0Rb23iCuePktw84FL31-49" value="服务主体钱包" style="whiteSpace=wrap;html=1;rounded=0;fillColor=#d5e8d4;strokeColor=#82b366;" parent="1" vertex="1">
          <mxGeometry x="1790" y="1385" width="120" height="60" as="geometry" />
        </mxCell>
        <mxCell id="L0Rb23iCuePktw84FL31-58" value="充值100W" style="edgeStyle=orthogonalEdgeStyle;rounded=0;orthogonalLoop=1;jettySize=auto;html=1;exitX=0.5;exitY=0.5;exitDx=0;exitDy=0;exitPerimeter=0;entryX=0;entryY=0.5;entryDx=0;entryDy=0;" parent="1" source="L0Rb23iCuePktw84FL31-59" target="L0Rb23iCuePktw84FL31-62" edge="1">
          <mxGeometry relative="1" as="geometry" />
        </mxCell>
        <mxCell id="L0Rb23iCuePktw84FL31-59" value="客户" style="shape=umlActor;verticalLabelPosition=bottom;verticalAlign=top;html=1;outlineConnect=0;" parent="1" vertex="1">
          <mxGeometry x="1160" y="860" width="30" height="60" as="geometry" />
        </mxCell>
        <mxCell id="L0Rb23iCuePktw84FL31-60" style="edgeStyle=orthogonalEdgeStyle;rounded=0;orthogonalLoop=1;jettySize=auto;html=1;exitX=0.5;exitY=0;exitDx=0;exitDy=0;entryX=0;entryY=0.5;entryDx=0;entryDy=0;" parent="1" source="L0Rb23iCuePktw84FL31-62" target="L0Rb23iCuePktw84FL31-65" edge="1">
          <mxGeometry relative="1" as="geometry" />
        </mxCell>
        <mxCell id="L0Rb23iCuePktw84FL31-61" value="回调: &lt;br&gt;subBankAccount、amount" style="edgeLabel;html=1;align=center;verticalAlign=middle;resizable=0;points=[];labelBackgroundColor=#ffffff;" parent="L0Rb23iCuePktw84FL31-60" vertex="1" connectable="0">
          <mxGeometry x="-0.3263" y="2" relative="1" as="geometry">
            <mxPoint as="offset" />
          </mxGeometry>
        </mxCell>
        <mxCell id="L0Rb23iCuePktw84FL31-62" value="银行" style="rounded=0;whiteSpace=wrap;html=1;" parent="1" vertex="1">
          <mxGeometry x="1320" y="860" width="120" height="60" as="geometry" />
        </mxCell>
        <mxCell id="L0Rb23iCuePktw84FL31-63" style="edgeStyle=orthogonalEdgeStyle;rounded=0;orthogonalLoop=1;jettySize=auto;html=1;exitX=1;exitY=0.5;exitDx=0;exitDy=0;entryX=0;entryY=0.5;entryDx=0;entryDy=0;" parent="1" source="L0Rb23iCuePktw84FL31-65" target="L0Rb23iCuePktw84FL31-86" edge="1">
          <mxGeometry relative="1" as="geometry">
            <mxPoint x="1810" y="840" as="targetPoint" />
          </mxGeometry>
        </mxCell>
        <mxCell id="L0Rb23iCuePktw84FL31-64" style="edgeStyle=orthogonalEdgeStyle;rounded=0;orthogonalLoop=1;jettySize=auto;html=1;exitX=1;exitY=0.5;exitDx=0;exitDy=0;entryX=0;entryY=0.5;entryDx=0;entryDy=0;" parent="1" source="L0Rb23iCuePktw84FL31-65" target="L0Rb23iCuePktw84FL31-71" edge="1">
          <mxGeometry relative="1" as="geometry" />
        </mxCell>
        <mxCell id="L0Rb23iCuePktw84FL31-65" value="佣金宝" style="rounded=0;whiteSpace=wrap;html=1;" parent="1" vertex="1">
          <mxGeometry x="1480" y="740" width="120" height="60" as="geometry" />
        </mxCell>
        <mxCell id="L0Rb23iCuePktw84FL31-66" value="打钱到子账户" style="shape=note;whiteSpace=wrap;html=1;backgroundOutline=1;darkOpacity=0.05;align=left;fillColor=#fff2cc;strokeColor=#d6b656;size=13;" parent="1" vertex="1">
          <mxGeometry x="1170" y="750" width="100" height="40" as="geometry" />
        </mxCell>
        <mxCell id="L0Rb23iCuePktw84FL31-67" value="" style="endArrow=none;dashed=1;html=1;entryX=0.5;entryY=1;entryDx=0;entryDy=0;entryPerimeter=0;" parent="1" target="L0Rb23iCuePktw84FL31-66" edge="1">
          <mxGeometry width="50" height="50" relative="1" as="geometry">
            <mxPoint x="1290" y="890" as="sourcePoint" />
            <mxPoint x="1300" y="850" as="targetPoint" />
          </mxGeometry>
        </mxCell>
        <mxCell id="L0Rb23iCuePktw84FL31-68" value="根据子账户找到项目、支付渠道，&lt;br&gt;从而找到钱包，增加对应钱包的余额" style="shape=note;whiteSpace=wrap;html=1;backgroundOutline=1;darkOpacity=0.05;align=left;fillColor=#fff2cc;strokeColor=#d6b656;size=13;" parent="1" vertex="1">
          <mxGeometry x="1747.5" y="520" width="200" height="70" as="geometry" />
        </mxCell>
        <mxCell id="L0Rb23iCuePktw84FL31-69" value="" style="endArrow=none;dashed=1;html=1;fontColor=none;entryX=0.5;entryY=1;entryDx=0;entryDy=0;entryPerimeter=0;" parent="1" target="L0Rb23iCuePktw84FL31-68" edge="1">
          <mxGeometry width="50" height="50" relative="1" as="geometry">
            <mxPoint x="1737.5" y="710" as="sourcePoint" />
            <mxPoint x="1807.5" y="620" as="targetPoint" />
          </mxGeometry>
        </mxCell>
        <mxCell id="L0Rb23iCuePktw84FL31-70" value="" style="group" parent="1" vertex="1" connectable="0">
          <mxGeometry x="1810" y="680" width="200" height="60" as="geometry" />
        </mxCell>
        <mxCell id="L0Rb23iCuePktw84FL31-71" value="项目子钱包" style="rounded=0;whiteSpace=wrap;html=1;" parent="L0Rb23iCuePktw84FL31-70" vertex="1">
          <mxGeometry width="120" height="60" as="geometry" />
        </mxCell>
        <mxCell id="L0Rb23iCuePktw84FL31-72" value="1：余额增加100W" style="curved=1;endArrow=classic;html=1;fontColor=none;exitX=1;exitY=0.75;exitDx=0;exitDy=0;entryX=1;entryY=0.25;entryDx=0;entryDy=0;" parent="L0Rb23iCuePktw84FL31-70" source="L0Rb23iCuePktw84FL31-71" target="L0Rb23iCuePktw84FL31-71" edge="1">
          <mxGeometry x="0.4653" y="-18" width="50" height="50" relative="1" as="geometry">
            <mxPoint x="130" y="50" as="sourcePoint" />
            <mxPoint x="130" y="10" as="targetPoint" />
            <Array as="points">
              <mxPoint x="200" y="60" />
              <mxPoint x="150" y="10" />
            </Array>
            <mxPoint as="offset" />
          </mxGeometry>
        </mxCell>
        <mxCell id="L0Rb23iCuePktw84FL31-76" value="0：充值" style="text;html=1;align=center;verticalAlign=middle;resizable=0;points=[];autosize=1;" parent="1" vertex="1">
          <mxGeometry x="1620" y="750" width="60" height="20" as="geometry" />
        </mxCell>
        <mxCell id="L0Rb23iCuePktw84FL31-78" value="" style="group" parent="1" vertex="1" connectable="0">
          <mxGeometry x="2120" y="810" width="200" height="60" as="geometry" />
        </mxCell>
        <mxCell id="L0Rb23iCuePktw84FL31-79" value="园区主体钱包" style="rounded=0;whiteSpace=wrap;html=1;" parent="L0Rb23iCuePktw84FL31-78" vertex="1">
          <mxGeometry width="120" height="60" as="geometry" />
        </mxCell>
        <mxCell id="L0Rb23iCuePktw84FL31-80" value="4：余额增加100W" style="curved=1;endArrow=classic;html=1;fontColor=none;exitX=1;exitY=0.75;exitDx=0;exitDy=0;entryX=1;entryY=0.25;entryDx=0;entryDy=0;" parent="L0Rb23iCuePktw84FL31-78" source="L0Rb23iCuePktw84FL31-79" target="L0Rb23iCuePktw84FL31-79" edge="1">
          <mxGeometry x="0.4653" y="-18" width="50" height="50" relative="1" as="geometry">
            <mxPoint x="130" y="50" as="sourcePoint" />
            <mxPoint x="130" y="10" as="targetPoint" />
            <Array as="points">
              <mxPoint x="200" y="60" />
              <mxPoint x="150" y="10" />
            </Array>
            <mxPoint as="offset" />
          </mxGeometry>
        </mxCell>
        <mxCell id="L0Rb23iCuePktw84FL31-81" style="edgeStyle=orthogonalEdgeStyle;rounded=0;orthogonalLoop=1;jettySize=auto;html=1;entryX=0;entryY=0.5;entryDx=0;entryDy=0;exitX=1;exitY=0.5;exitDx=0;exitDy=0;" parent="1" source="L0Rb23iCuePktw84FL31-86" target="L0Rb23iCuePktw84FL31-79" edge="1">
          <mxGeometry relative="1" as="geometry">
            <mxPoint x="1950" y="840" as="sourcePoint" />
          </mxGeometry>
        </mxCell>
        <mxCell id="L0Rb23iCuePktw84FL31-82" value="分包转出" style="edgeLabel;html=1;align=center;verticalAlign=middle;resizable=0;points=[];" parent="L0Rb23iCuePktw84FL31-81" vertex="1" connectable="0">
          <mxGeometry x="-0.2" y="3" relative="1" as="geometry">
            <mxPoint as="offset" />
          </mxGeometry>
        </mxCell>
        <mxCell id="L0Rb23iCuePktw84FL31-83" value="充值园区主体金额最大上限（此图假设园区主体限额40W）" style="shape=note;whiteSpace=wrap;html=1;backgroundOutline=1;darkOpacity=0.05;align=left;fillColor=#fff2cc;strokeColor=#d6b656;size=13;" parent="1" vertex="1">
          <mxGeometry x="2160" y="610" width="190" height="65" as="geometry" />
        </mxCell>
        <mxCell id="L0Rb23iCuePktw84FL31-84" value="" style="endArrow=none;dashed=1;html=1;entryX=0.5;entryY=1;entryDx=0;entryDy=0;entryPerimeter=0;" parent="1" target="L0Rb23iCuePktw84FL31-83" edge="1">
          <mxGeometry width="50" height="50" relative="1" as="geometry">
            <mxPoint x="2050" y="820" as="sourcePoint" />
            <mxPoint x="2140" y="720" as="targetPoint" />
          </mxGeometry>
        </mxCell>
        <mxCell id="L0Rb23iCuePktw84FL31-89" value="" style="group" parent="1" vertex="1" connectable="0">
          <mxGeometry x="1810" y="770" width="120" height="150" as="geometry" />
        </mxCell>
        <mxCell id="L0Rb23iCuePktw84FL31-88" value="3：余额减少100W&lt;br&gt;（分包转出）" style="curved=1;endArrow=classic;html=1;fontColor=none;" parent="L0Rb23iCuePktw84FL31-89" edge="1">
          <mxGeometry x="0.3823" y="-32" width="50" height="50" relative="1" as="geometry">
            <mxPoint x="20" y="110" as="sourcePoint" />
            <mxPoint x="80" y="110" as="targetPoint" />
            <Array as="points">
              <mxPoint x="60" y="150" />
              <mxPoint x="90" y="110" />
            </Array>
            <mxPoint as="offset" />
          </mxGeometry>
        </mxCell>
        <mxCell id="L0Rb23iCuePktw84FL31-86" value="服务主体钱包" style="rounded=0;whiteSpace=wrap;html=1;" parent="L0Rb23iCuePktw84FL31-89" vertex="1">
          <mxGeometry y="40" width="120" height="60" as="geometry" />
        </mxCell>
        <mxCell id="L0Rb23iCuePktw84FL31-87" value="2：余额增加100W（充值）" style="curved=1;endArrow=classic;html=1;fontColor=none;exitX=0.75;exitY=0;exitDx=0;exitDy=0;entryX=0.25;entryY=0;entryDx=0;entryDy=0;" parent="L0Rb23iCuePktw84FL31-89" source="L0Rb23iCuePktw84FL31-86" target="L0Rb23iCuePktw84FL31-86" edge="1">
          <mxGeometry x="-1810" y="-860" width="50" height="50" as="geometry">
            <mxPoint x="130" y="90" as="sourcePoint" />
            <mxPoint x="130" y="50" as="targetPoint" />
            <Array as="points">
              <mxPoint x="90" />
              <mxPoint x="30" y="10" />
            </Array>
            <mxPoint x="-20" y="-40" as="offset" />
          </mxGeometry>
        </mxCell>
        <mxCell id="L0Rb23iCuePktw84FL31-90" value="项目" style="rounded=0;whiteSpace=wrap;html=1;" parent="1" vertex="1">
          <mxGeometry x="1240" y="1630" width="120" height="60" as="geometry" />
        </mxCell>
        <mxCell id="L0Rb23iCuePktw84FL31-91" value="" style="edgeStyle=orthogonalEdgeStyle;rounded=0;orthogonalLoop=1;jettySize=auto;html=1;fontColor=none;exitX=1;exitY=0.5;exitDx=0;exitDy=0;" parent="1" source="L0Rb23iCuePktw84FL31-90" target="L0Rb23iCuePktw84FL31-95" edge="1">
          <mxGeometry relative="1" as="geometry">
            <mxPoint x="1560" y="1660" as="sourcePoint" />
          </mxGeometry>
        </mxCell>
        <mxCell id="L0Rb23iCuePktw84FL31-92" value="提现100W" style="edgeStyle=orthogonalEdgeStyle;rounded=0;orthogonalLoop=1;jettySize=auto;html=1;exitX=0.5;exitY=0.5;exitDx=0;exitDy=0;exitPerimeter=0;entryX=0;entryY=0.5;entryDx=0;entryDy=0;fontColor=none;" parent="1" source="L0Rb23iCuePktw84FL31-93" target="L0Rb23iCuePktw84FL31-90" edge="1">
          <mxGeometry relative="1" as="geometry" />
        </mxCell>
        <mxCell id="L0Rb23iCuePktw84FL31-93" value="客户" style="shape=umlActor;verticalLabelPosition=bottom;verticalAlign=top;html=1;outlineConnect=0;labelBackgroundColor=#ffffff;fontColor=none;align=left;" parent="1" vertex="1">
          <mxGeometry x="1120" y="1630" width="30" height="60" as="geometry" />
        </mxCell>
        <mxCell id="L0Rb23iCuePktw84FL31-94" value="" style="group" parent="1" vertex="1" connectable="0">
          <mxGeometry x="1534" y="1570" width="136" height="120" as="geometry" />
        </mxCell>
        <mxCell id="L0Rb23iCuePktw84FL31-95" value="项目子钱包" style="whiteSpace=wrap;html=1;rounded=0;fillColor=#d5e8d4;strokeColor=#82b366;" parent="L0Rb23iCuePktw84FL31-94" vertex="1">
          <mxGeometry y="60" width="120" height="60" as="geometry" />
        </mxCell>
        <mxCell id="L0Rb23iCuePktw84FL31-96" value="" style="curved=1;endArrow=classic;html=1;fontColor=none;entryX=0.383;entryY=-0.067;entryDx=0;entryDy=0;entryPerimeter=0;" parent="L0Rb23iCuePktw84FL31-94" target="L0Rb23iCuePktw84FL31-95" edge="1">
          <mxGeometry width="50" height="50" relative="1" as="geometry">
            <mxPoint x="106" y="60" as="sourcePoint" />
            <mxPoint x="156" y="10" as="targetPoint" />
            <Array as="points">
              <mxPoint x="136" y="20" />
              <mxPoint x="66" />
            </Array>
          </mxGeometry>
        </mxCell>
        <mxCell id="L0Rb23iCuePktw84FL31-97" value="余额减少100W" style="edgeLabel;html=1;align=center;verticalAlign=middle;resizable=0;points=[];fontColor=none;" parent="L0Rb23iCuePktw84FL31-96" vertex="1" connectable="0">
          <mxGeometry x="0.0913" y="2" relative="1" as="geometry">
            <mxPoint x="47.66" y="-8.46" as="offset" />
          </mxGeometry>
        </mxCell>
        <mxCell id="w7ss5ftPBaglRslSQrGy-6" style="edgeStyle=orthogonalEdgeStyle;rounded=0;orthogonalLoop=1;jettySize=auto;html=1;exitX=1;exitY=0.5;exitDx=0;exitDy=0;" edge="1" parent="1" source="L0Rb23iCuePktw84FL31-103" target="L0Rb23iCuePktw84FL31-120">
          <mxGeometry relative="1" as="geometry" />
        </mxCell>
        <mxCell id="w7ss5ftPBaglRslSQrGy-10" value="提现" style="edgeLabel;html=1;align=center;verticalAlign=middle;resizable=0;points=[];" vertex="1" connectable="0" parent="w7ss5ftPBaglRslSQrGy-6">
          <mxGeometry x="-0.2836" relative="1" as="geometry">
            <mxPoint as="offset" />
          </mxGeometry>
        </mxCell>
        <mxCell id="L0Rb23iCuePktw84FL31-103" value="项目" style="rounded=0;whiteSpace=wrap;html=1;" parent="1" vertex="1">
          <mxGeometry x="1240" y="1880" width="120" height="60" as="geometry" />
        </mxCell>
        <mxCell id="L0Rb23iCuePktw84FL31-105" value="提现100W" style="edgeStyle=orthogonalEdgeStyle;rounded=0;orthogonalLoop=1;jettySize=auto;html=1;exitX=0.5;exitY=0.5;exitDx=0;exitDy=0;exitPerimeter=0;entryX=0;entryY=0.5;entryDx=0;entryDy=0;fontColor=none;" parent="1" source="L0Rb23iCuePktw84FL31-106" target="L0Rb23iCuePktw84FL31-103" edge="1">
          <mxGeometry relative="1" as="geometry" />
        </mxCell>
        <mxCell id="L0Rb23iCuePktw84FL31-106" value="客户" style="shape=umlActor;verticalLabelPosition=bottom;verticalAlign=top;html=1;outlineConnect=0;labelBackgroundColor=#ffffff;fontColor=none;align=left;" parent="1" vertex="1">
          <mxGeometry x="1120" y="1880" width="30" height="60" as="geometry" />
        </mxCell>
        <mxCell id="L0Rb23iCuePktw84FL31-107" value="" style="group" parent="1" vertex="1" connectable="0">
          <mxGeometry x="1320" y="2020" width="136" height="120" as="geometry" />
        </mxCell>
        <mxCell id="L0Rb23iCuePktw84FL31-108" value="项目子钱包" style="whiteSpace=wrap;html=1;rounded=0;fillColor=#d5e8d4;strokeColor=#82b366;" parent="L0Rb23iCuePktw84FL31-107" vertex="1">
          <mxGeometry y="60" width="120" height="60" as="geometry" />
        </mxCell>
        <mxCell id="L0Rb23iCuePktw84FL31-109" value="" style="curved=1;endArrow=classic;html=1;fontColor=none;entryX=0.383;entryY=-0.067;entryDx=0;entryDy=0;entryPerimeter=0;" parent="L0Rb23iCuePktw84FL31-107" target="L0Rb23iCuePktw84FL31-108" edge="1">
          <mxGeometry width="50" height="50" relative="1" as="geometry">
            <mxPoint x="106" y="60" as="sourcePoint" />
            <mxPoint x="156" y="10" as="targetPoint" />
            <Array as="points">
              <mxPoint x="136" y="20" />
              <mxPoint x="66" />
            </Array>
          </mxGeometry>
        </mxCell>
        <mxCell id="L0Rb23iCuePktw84FL31-110" value="5：余额减少100W" style="edgeLabel;html=1;align=center;verticalAlign=middle;resizable=0;points=[];fontColor=none;" parent="L0Rb23iCuePktw84FL31-109" vertex="1" connectable="0">
          <mxGeometry x="0.0913" y="2" relative="1" as="geometry">
            <mxPoint x="47.66" y="-8.46" as="offset" />
          </mxGeometry>
        </mxCell>
        <mxCell id="L0Rb23iCuePktw84FL31-112" value="" style="group" parent="1" vertex="1" connectable="0">
          <mxGeometry x="1802" y="1820" width="136" height="120" as="geometry" />
        </mxCell>
        <mxCell id="L0Rb23iCuePktw84FL31-113" value="园区主体钱包" style="whiteSpace=wrap;html=1;rounded=0;fillColor=#d5e8d4;strokeColor=#82b366;" parent="L0Rb23iCuePktw84FL31-112" vertex="1">
          <mxGeometry y="60" width="120" height="60" as="geometry" />
        </mxCell>
        <mxCell id="L0Rb23iCuePktw84FL31-114" value="" style="curved=1;endArrow=classic;html=1;fontColor=none;entryX=0.383;entryY=-0.067;entryDx=0;entryDy=0;entryPerimeter=0;" parent="L0Rb23iCuePktw84FL31-112" target="L0Rb23iCuePktw84FL31-113" edge="1">
          <mxGeometry width="50" height="50" relative="1" as="geometry">
            <mxPoint x="106" y="60" as="sourcePoint" />
            <mxPoint x="156" y="10" as="targetPoint" />
            <Array as="points">
              <mxPoint x="136" y="20" />
              <mxPoint x="66" />
            </Array>
          </mxGeometry>
        </mxCell>
        <mxCell id="L0Rb23iCuePktw84FL31-115" value="4.2：余额减少100W" style="edgeLabel;html=1;align=center;verticalAlign=middle;resizable=0;points=[];fontColor=none;" parent="L0Rb23iCuePktw84FL31-114" vertex="1" connectable="0">
          <mxGeometry x="0.0913" y="2" relative="1" as="geometry">
            <mxPoint x="47.66" y="-8.46" as="offset" />
          </mxGeometry>
        </mxCell>
        <mxCell id="L0Rb23iCuePktw84FL31-129" value="" style="group" parent="1" vertex="1" connectable="0">
          <mxGeometry x="1494" y="1820" width="136" height="175" as="geometry" />
        </mxCell>
        <mxCell id="L0Rb23iCuePktw84FL31-120" value="服务主体钱包" style="whiteSpace=wrap;html=1;rounded=0;fillColor=#d5e8d4;strokeColor=#82b366;" parent="L0Rb23iCuePktw84FL31-129" vertex="1">
          <mxGeometry y="60" width="120" height="60" as="geometry" />
        </mxCell>
        <mxCell id="L0Rb23iCuePktw84FL31-121" value="" style="curved=1;endArrow=classic;html=1;fontColor=none;entryX=0.383;entryY=-0.067;entryDx=0;entryDy=0;entryPerimeter=0;" parent="L0Rb23iCuePktw84FL31-129" target="L0Rb23iCuePktw84FL31-120" edge="1">
          <mxGeometry width="50" height="50" as="geometry">
            <mxPoint x="106" y="60" as="sourcePoint" />
            <mxPoint x="156" y="10" as="targetPoint" />
            <Array as="points">
              <mxPoint x="136" y="20" />
              <mxPoint x="66" />
            </Array>
          </mxGeometry>
        </mxCell>
        <mxCell id="L0Rb23iCuePktw84FL31-122" value="3：余额充足，余额减少100W" style="edgeLabel;html=1;align=center;verticalAlign=middle;resizable=0;points=[];fontColor=none;" parent="L0Rb23iCuePktw84FL31-121" vertex="1" connectable="0">
          <mxGeometry x="0.0913" y="2" relative="1" as="geometry">
            <mxPoint x="31.659999999999997" y="-8.46" as="offset" />
          </mxGeometry>
        </mxCell>
        <mxCell id="L0Rb23iCuePktw84FL31-127" value="4：余额不足" style="curved=1;endArrow=classic;html=1;exitX=1;exitY=1;exitDx=0;exitDy=0;entryX=0.75;entryY=1;entryDx=0;entryDy=0;" parent="L0Rb23iCuePktw84FL31-129" source="L0Rb23iCuePktw84FL31-120" target="L0Rb23iCuePktw84FL31-120" edge="1">
          <mxGeometry width="50" height="50" as="geometry">
            <mxPoint x="46" y="205" as="sourcePoint" />
            <mxPoint x="66" y="120" as="targetPoint" />
            <Array as="points">
              <mxPoint x="136" y="155" />
              <mxPoint x="86" y="150" />
            </Array>
            <mxPoint x="56" y="55" as="offset" />
          </mxGeometry>
        </mxCell>
        <mxCell id="w7ss5ftPBaglRslSQrGy-9" style="edgeStyle=orthogonalEdgeStyle;rounded=0;orthogonalLoop=1;jettySize=auto;html=1;exitX=0.5;exitY=1;exitDx=0;exitDy=0;entryX=1;entryY=0.5;entryDx=0;entryDy=0;" edge="1" parent="1" source="L0Rb23iCuePktw84FL31-120" target="L0Rb23iCuePktw84FL31-108">
          <mxGeometry relative="1" as="geometry" />
        </mxCell>
        <mxCell id="w7ss5ftPBaglRslSQrGy-12" style="edgeStyle=orthogonalEdgeStyle;rounded=0;orthogonalLoop=1;jettySize=auto;html=1;exitX=0;exitY=0.5;exitDx=0;exitDy=0;entryX=1;entryY=0.5;entryDx=0;entryDy=0;" edge="1" parent="1" source="L0Rb23iCuePktw84FL31-113" target="L0Rb23iCuePktw84FL31-120">
          <mxGeometry relative="1" as="geometry" />
        </mxCell>
        <mxCell id="w7ss5ftPBaglRslSQrGy-13" value="4.1：分包转入100W" style="edgeLabel;html=1;align=center;verticalAlign=middle;resizable=0;points=[];" vertex="1" connectable="0" parent="w7ss5ftPBaglRslSQrGy-12">
          <mxGeometry x="0.234" y="-2" relative="1" as="geometry">
            <mxPoint x="34" y="-0.5" as="offset" />
          </mxGeometry>
        </mxCell>
      </root>
    </mxGraphModel>
  </diagram>
</mxfile>
